<svg xmlns="http://www.w3.org/2000/svg" viewBox="0 0 1717.63 413.17"><g id="Layer_2" data-name="Layer 2"><g id="Layer_2-2" data-name="Layer 2"><path d="M1486.46,310a39.71,39.71,0,0,1-6.07.9c-51.46-.34-102.92-.46-154.38-1.25-27.6-.42-55.18-2.1-82.77-3-16.14-.52-32.29-.6-48.43-.91q-45.93-.87-91.85-1.74c-1.92,0-3.85.21-5.78.33l-.65,1.88c2.08.94,4.08,2.24,6.26,2.74,5.47,1.24,11,2.14,16.54,3.12a42.28,42.28,0,0,0,6.39.87c24.13.39,48.26.62,72.38,1.09,30.3.59,60.59,1.53,90.89,2,68.76,1.12,137.53,1.83,206.29,3.16,24.45.47,48.87,2.69,73.32,3.37,31.62.88,63.26.87,94.89,1.52,13.63.28,27.27,1.06,40.87,2,3.72.26,7.43,1.73,10.93,3.16a4.81,4.81,0,0,1,2.34,3.88c-.12,1.24-1.74,2.83-3.06,3.35a34.55,34.55,0,0,1-7.76,1.84c-4.31.65-7.58,2.26-10.23,6.18-1.19,1.76-5.35,2.62-7.87,2.18-22.86-4-45.8-1.93-68.7-1.14-17.42.59-34.8,2.49-52.22,3-26,.71-52,.63-77.93,1a122.34,122.34,0,0,0-14.41,1.35c-1.93.26-4.6.68-5.51,2-5.45,7.94-14.16,4.83-20.89,5.3-36.52,2.5-73.12,3.73-109.7,5.39-.5,0-1.08-.14-1.48.07-1.32.68-2.56,1.49-3.84,2.25,1.23.92,2.33,2.33,3.71,2.68a41.2,41.2,0,0,0,8.37,1.1c28.78,1.08,57.56,2.07,86.33,3.12,7.82.28,15.64.54,23.44,1.11,1.37.1,2.64,1.66,4,2.55-1.32.73-2.57,1.94-3.95,2.11-39,5-78.09,3.07-117.17,3-59.62-.09-119.24-.61-178.86-.74-15.14,0-30.3.56-45.43,1.16-3.75.15-7.43,1.65-11.19,2.15a201.23,201.23,0,0,1-20.59,2.14c-10.24.28-20.51-.42-30.75-.17-11.62.28-23.23,1.29-34.85,1.71-18.95.69-37.91,1.14-56.87,1.72-24.11.73-48.33.35-72.33,2.46-76.62,6.71-153.37,4.13-230.09,4.37-8.3,0-16.6-1.07-24.92-1.38-7.12-.27-14.27,0-21.39-.34a13.57,13.57,0,0,1-7.35-2.39c-3.18-2.49-6-2-9.31-.82-3.56,1.24-7.28,2.77-11,2.82-13.13.18-26.27-.09-39.4-.43-10.48-.28-21-.36-31.4-1.52a108.39,108.39,0,0,0-29.29.22c-2.43.38-4.77,1.29-7.2,1.71a134.57,134.57,0,0,1-14.2,2.07c-7.1.46-14.24.41-21.36.58a6.78,6.78,0,0,0-1,.19c-12.9,2.23-25.73,5.18-38.72,6.48-12,1.19-24.22.33-36.31.88-13.08.59-26.14,1.74-39.2,2.68-3,.22-6,.88-8.94.76-10.19-.4-19,6.18-29.54,5.09-10.06-1-20.3-.17-30.46-.31-12.79-.18-25.57-.67-38.36-.77-10.27-.08-20.54.32-30.81.33-4.82,0-9.83.31-14.38-.92a18.74,18.74,0,0,1-9.12-6.35c-4.21-5.39-9.65-6.81-15.83-6.71-22,.34-44,1.73-65.88.84-11.2-.46-23,0-33.8-5.18-4.52-2.16-10-2.26-14.93-3.66a12,12,0,0,1-8.52-7.71c-.79-2.14-3-3.9-4.82-5.49-5.15-4.45-10.45-8.71-15.68-13.05A11.81,11.81,0,0,1,.11,353a212.06,212.06,0,0,1,3.41-21.51c.51-2.16,3.59-3.67,5.4-5.57,1.41-1.48,3.5-2.93,3.84-4.68.86-4.41,3.72-6.62,7.38-8,9-3.52,18.08-6.67,27-10.35,2.45-1,4.09-4,6.53-5,12.8-5.41,25.08-12.66,39.77-12.05,1.75.07,3.55-1.41,5.36-2.09,3.62-1.35,7.29-3.85,10.89-3.77q30.36.61,60.67,2.42c7.39.45,14.72,2.29,22,3.79a27.33,27.33,0,0,1,7.86,3.06c5.64,3.23,8.29,3.09,13.6-.52a47.08,47.08,0,0,1,26-8.71c15.13-.36,30.25-1.73,45.38-1.77,21.12-.05,42.25.68,63.37,1.2,7.31.17,14.64.48,21.92,1.21,2.23.22,5.11,1.49,6.31,3.23,3.4,4.95,8,6,13.45,5.91,22.31-.3,44.63-.73,66.93-.66,6.56,0,13.1,1.58,19.66,2.41a22.43,22.43,0,0,0,3.47.26c20.62-.67,41.23-1.59,61.86-2q42-.82,83.92-1c14.12,0,28.24.79,42.37,1,3.73.05,8.13.7,9.53-4.84.25-1,3.16-1.82,4.83-1.81,16.48.06,33,.39,49.43.51,15.66.12,31.31,0,47,.17,14.47.17,29,1,43.42.87,13-.06,25.93-1,38.89-1.41,5.79-.2,11.6-.18,17.39-.19,28.64-.05,57.27-.42,85.9,0,16.94.25,33.85,2.14,50.79,2.64,9.25.27,17.9,2.15,26.82,4.46,8.51,2.2,17.85,1.39,26.83,1.47,29.15.25,58.31,0,87.45.5q55.38,1,110.74,2.86,42.15,1.45,84.24,4.09c25.55,1.62,51,4.8,76.68,3.91,13.64-.47,27.31-.16,41,0a51.78,51.78,0,0,1,11.87,1.21c2.19.54,4,2.7,5.94,4.13Z"/><path d="M565.19,11.22l-1.75-4.28a44.28,44.28,0,0,1,6.47-1q139.67,0,279.35.12c9.52,0,19.06.61,28.35,4.09,11.81,4.41,24.37,4.77,36.93,4.91,22.3.26,44.59,1,66.89,1.63,1.15,0,2.7-.19,3.4.44,5,4.58,11.45,3.45,17,3.38,18.94-.26,37.86-1.89,56.79-2.2,15.79-.27,31.6.57,47.4.95,2.66.07,5.31.34,8,.47l78.16,3.78c.5,0,1,.09,1.5.11q37.63,1.11,75.29,2.22c10.64.32,21.29.65,31.92,1.16,1.68.08,4.33.71,4.8,1.81,1.83,4.3,5.28,4,8.78,4h12.24c0,.5,0,1,.08,1.51-1.51.11-3,.27-4.52.31-13.45.36-26.91.62-40.35,1.08-6.91.24-13.92.21-20.64,1.55-3.38.67-8.32,3.76-8.77,6.4-.65,3.78,4.26,5.51,8,5.74,6.47.39,13,.37,19.47.26,10.75-.19,21.51-.62,32.26-.88,4.33-.1,8.66,0,13,0,1.49,0,3.18-.41,4.46.13,14.14,6,28.88-2,43,2,2.13.61,3.94,2.24,6,3.21,1.63.78,3.51,2,5.07,1.77,13.42-2.11,26.79-.86,40.23-.3,11.44.47,22.94-.67,34.42-.74,24-.14,48,.23,72-.25,7.09-.14,11.57,2.48,15.64,8.86-4.47,1.82-8.78,3.6-13.11,5.34-.76.3-1.86.15-2.37.65-7.71,7.7-17.84,5.26-27,6-16.9,1.34-33.89,1.58-50.84,2.16q-31.38,1.07-62.75,1.92c-17.09.47-34.21.48-51.28,1.33a215.37,215.37,0,0,0-27.19,3.62c-2.36.43-4.25,3.1-6.52,4.48s-4.43,3-6.79,3.27c-5.27.56-10.64.26-16,.42-18.13.57-36.26,1.22-54.39,1.75-16.6.49-33.21.84-49.81,1.33-3,.09-6.23-.08-8.82,1.08a8.66,8.66,0,0,0-4.15,5.69c-.21,1.13,2.55,3.33,4.37,4.18,5,2.35,10.24,3.5,15.87,2.28a9.06,9.06,0,0,1,4.86.85,15.84,15.84,0,0,1,3.36,2.45c-1.31.71-2.65,2.07-3.93,2-17.42-.59-34.82-1.54-52.24-2.06-10-.3-20-.18-29.91.08-8.64.22-17.26,1.2-25.9,1.3-18.14.22-36.29-.1-54.43.19-5.47.09-10.91.36-15.89,4.4-2.52,2-7.63,1-11.57,1.15-18.27.51-36.64-.11-54.77,1.71-12.58,1.26-24.91,2.65-37.61,1.88-8.19-.5-16.5,1.37-24.77,2-5.31.41-10.63.6-15.95.7-27.29.54-54.5,1.49-81.69,4.56-17,1.92-34.25,1-51.39,1.57-3.23.11-6.42,1.3-9.65,1.9-3.58.66-7.17,1.67-10.77,1.75-12.82.3-25.65.24-38.47.36-30.14.28-60.28.94-90.42.77-27-.16-53.91-1.21-80.86-1.9a3.69,3.69,0,0,1-2.89-1.48l7.54-2.23c.2-.51.41-1,.62-1.54-2.59-1.19-5.15-3.34-7.76-3.4-15.93-.36-31.88-.27-47.82-.21a12.37,12.37,0,0,0-5.27,1.35c-5.63,2.85-11.51,3-17.55,2.1-4.62-.67-9.2-1.39-13.47,1.64-1.09.77-2.88.74-4.35.74-10.82,0-21.8,1-32.44-.43-11.94-1.61-23.72.57-35.51-.59-2.66-.26-5.18-1.69-7.81-2.41-2-.55-4.29-1.6-6.1-1.11-10.29,2.77-20.45.15-30.65-.22-4.79-.18-9.56-.55-14.34-.56-7.5,0-15,.37-22.48.27-9-.12-18-.32-26.92-1a12,12,0,0,1-7-3.77c-3.07-3.31-5.36-7.33-8.2-10.87a4.54,4.54,0,0,0-3.37-1.4c-7.87.59-16.08.18-23.51,2.37-16.21,4.77-32.62,3.95-49.05,3.82-3.39,0-6.77-1.4-10.15-2.13-4.83-1-9.62-2.43-14.5-3-3.89-.42-6.62,1.53-7.14,5.94a5.6,5.6,0,0,1-2.26,3.27c-4.35,3.17-9.25,5.7-13.17,9.32-3,2.81-5.5,2.89-8.92,1.42a18.85,18.85,0,0,0-7.1-1.73c-15.27-.09-27.42-5.86-37-18-5.65-7.11-12.58-13.24-19.23-19.49-2.9-2.72-5-5.29-5.62-9.49-.88-5.86-2.06-11.94-4.54-17.24C11.73,56.78,14,49.82,16.7,42.94c3.15-8,7.78-15.45,15.12-20.15A163.82,163.82,0,0,1,56.6,9.46C65.1,5.89,74.21,3.7,83.13,1.19c6.06-1.7,11.94-2,17.74,1.89,2.1,1.4,5.71.94,8.59.72C114,3.44,118.59,2,123.14,2c20.47.09,41,.09,61.4,1,17.51.78,35.05,1,52.39,5.12,9.21,2.19,19.18,1.22,28.82,1.53,1.42,0,2.87-.76,4.32-1.09,4.26-1,8.54-2.71,12.79-2.64C307,6.31,331,7.3,355.14,7.79,393.87,8.58,432.62,9,471.35,9.9c10.26.24,20.48,1.93,30.75,2.56,4.41.27,8.89-.8,13.32-.65,8.22.28,16.42,1.13,24.64,1.45a12.16,12.16,0,0,0,6.41-1.52c3.21-1.92,6-1.93,9.39-.46,2.66,1.13,5.8,1.13,8.72,1.63Z"/></g></g></svg>