<svg xmlns="http://www.w3.org/2000/svg" viewBox="0 0 1717.63 134.93">
    <g id="Layer_2" data-name="Layer 2">
        <g id="Layer_2-2" data-name="Layer 2">
            <path fill="green"
                d="M1486.46,31.78a39.71,39.71,0,0,1-6.07.9c-51.46-.34-102.92-.46-154.38-1.25-27.6-.42-55.18-2.1-82.77-3-16.14-.52-32.29-.6-48.43-.9q-45.93-.87-91.85-1.75c-1.92,0-3.85.21-5.78.33l-.65,1.88c2.08.94,4.08,2.24,6.26,2.74,5.47,1.24,11,2.14,16.54,3.12a41,41,0,0,0,6.39.87c24.13.4,48.26.62,72.38,1.09,30.3.59,60.59,1.54,90.89,2,68.76,1.11,137.53,1.82,206.29,3.15,24.45.48,48.87,2.7,73.32,3.37,31.62.88,63.26.88,94.89,1.52,13.63.28,27.27,1.06,40.87,2,3.72.26,7.43,1.73,10.93,3.16a4.83,4.83,0,0,1,2.34,3.89c-.12,1.23-1.74,2.82-3.06,3.35a35.09,35.09,0,0,1-7.76,1.83c-4.31.65-7.58,2.27-10.23,6.18-1.19,1.76-5.35,2.62-7.87,2.18-22.86-4-45.8-1.93-68.7-1.14-17.42.6-34.8,2.5-52.22,3-26,.72-52,.64-77.93,1a122.36,122.36,0,0,0-14.41,1.36c-1.93.26-4.6.67-5.51,2-5.45,7.94-14.16,4.84-20.89,5.3-36.52,2.5-73.12,3.73-109.7,5.39-.5,0-1.08-.13-1.48.07-1.32.68-2.56,1.49-3.84,2.25,1.23.93,2.33,2.33,3.71,2.68a40.5,40.5,0,0,0,8.37,1.1c28.78,1.08,57.56,2.07,86.33,3.12,7.82.29,15.64.54,23.44,1.11,1.37.1,2.64,1.67,4,2.56-1.32.72-2.57,1.93-3.95,2.11-39,5-78.09,3.06-117.17,3-59.62-.09-119.24-.6-178.86-.74-15.14,0-30.3.56-45.43,1.16-3.75.15-7.43,1.66-11.19,2.15a201.23,201.23,0,0,1-20.59,2.14c-10.24.28-20.51-.42-30.75-.17-11.62.28-23.23,1.29-34.85,1.71-18.95.69-37.91,1.14-56.87,1.72-24.11.74-48.33.36-72.33,2.46-76.62,6.71-153.37,4.13-230.09,4.37-8.3,0-16.6-1.07-24.92-1.38-7.12-.27-14.27,0-21.39-.34a13.57,13.57,0,0,1-7.35-2.39c-3.18-2.49-6-2-9.31-.82-3.56,1.24-7.28,2.77-11,2.82-13.13.18-26.27-.09-39.4-.43-10.48-.27-21-.35-31.4-1.52a108.79,108.79,0,0,0-29.29.22c-2.43.39-4.77,1.3-7.2,1.71a134.57,134.57,0,0,1-14.2,2.07c-7.1.46-14.24.41-21.36.58a6.78,6.78,0,0,0-1,.19c-12.9,2.23-25.73,5.19-38.72,6.48-12,1.19-24.22.34-36.31.88-13.08.59-26.14,1.75-39.2,2.68-3,.22-6,.88-8.94.76-10.19-.39-19,6.18-29.54,5.09-10.06-1-20.3-.16-30.46-.31-12.79-.17-25.57-.67-38.36-.77-10.27-.07-20.54.33-30.81.33-4.82,0-9.83.31-14.38-.92a18.67,18.67,0,0,1-9.12-6.35c-4.21-5.39-9.65-6.8-15.83-6.71-22,.35-44,1.73-65.88.84-11.2-.45-23,0-33.8-5.18-4.52-2.16-10-2.25-14.93-3.66a12,12,0,0,1-8.52-7.71c-.79-2.14-3-3.9-4.82-5.49-5.15-4.45-10.45-8.71-15.68-13a11.81,11.81,0,0,1-4.59-11A212.51,212.51,0,0,1,3.52,53.28c.51-2.15,3.59-3.67,5.4-5.57,1.41-1.47,3.5-2.93,3.84-4.68.86-4.41,3.72-6.61,7.38-8.05,9-3.52,18.08-6.67,27-10.35,2.45-1,4.09-4,6.53-5C66.44,14.23,78.72,7,93.41,7.59c1.75.07,3.55-1.41,5.36-2.09,3.62-1.35,7.29-3.85,10.89-3.77q30.36.63,60.67,2.42c7.39.45,14.72,2.29,22,3.8A27,27,0,0,1,200.21,11c5.64,3.23,8.29,3.09,13.6-.52a47.16,47.16,0,0,1,26-8.71C254.91,1.41,270,0,285.16,0c21.12,0,42.25.68,63.37,1.2,7.31.18,14.64.48,21.92,1.21,2.23.22,5.11,1.49,6.31,3.23,3.4,5,8,6,13.45,5.92,22.31-.31,44.63-.74,66.93-.67,6.56,0,13.1,1.58,19.66,2.41a21.25,21.25,0,0,0,3.47.26c20.62-.67,41.23-1.58,61.86-2q42-.81,83.92-1c14.12,0,28.24.79,42.37,1,3.73,0,8.13.69,9.53-4.85.25-1,3.16-1.82,4.83-1.81,16.48.07,33,.39,49.43.52,15.66.12,31.31,0,47,.16,14.47.17,29,1,43.42.87,13-.06,25.93-1,38.89-1.41,5.79-.2,11.6-.18,17.39-.19,28.64,0,57.27-.42,85.9,0,16.94.26,33.85,2.14,50.79,2.64,9.25.28,17.9,2.15,26.82,4.46,8.51,2.2,17.85,1.39,26.83,1.47,29.15.25,58.31,0,87.45.5q55.38,1,110.74,2.86,42.15,1.45,84.24,4.09c25.55,1.62,51,4.81,76.68,3.91,13.64-.47,27.31-.16,41,0A52.34,52.34,0,0,1,1481.17,26c2.19.54,4,2.7,5.94,4.14C1486.89,30.68,1486.68,31.23,1486.46,31.78Z" />
        </g>
    </g>
</svg>