<svg xmlns="http://www.w3.org/2000/svg" viewBox="0 0 1532.56 136.5">
    <g id="Layer_2" data-name="Layer 2">
        <g id="Layer_2-2" data-name="Layer 2">
            <path fill="orange"
                d="M551.71,11.22,550,6.94a44.48,44.48,0,0,1,6.47-1q139.68,0,279.35.12c9.52,0,19.06.61,28.36,4.09,11.8,4.41,24.36,4.77,36.93,4.91,22.3.26,44.59,1,66.88,1.63,1.16,0,2.71-.19,3.4.44,5,4.58,11.45,3.45,17.06,3.38,18.93-.26,37.85-1.89,56.79-2.2,15.79-.27,31.6.57,47.4.95,2.66.07,5.31.34,8,.47l78.16,3.78c.5,0,1,.09,1.49.11q37.65,1.11,75.29,2.22c10.65.32,21.29.65,31.93,1.16,1.68.08,4.32.71,4.79,1.81,1.83,4.3,5.28,4,8.78,4h12.24l.09,1.51c-1.51.11-3,.27-4.53.31-13.45.36-26.9.62-40.35,1.08-6.9.24-13.92.21-20.64,1.55-3.38.67-8.31,3.76-8.77,6.4-.65,3.78,4.27,5.51,8,5.74,6.47.39,13,.37,19.46.26,10.76-.19,21.51-.62,32.27-.88,4.33-.1,8.66,0,13,0,1.5,0,3.19-.41,4.47.13,14.13,6,28.87-2,43,2,2.13.61,3.94,2.24,6,3.21,1.63.78,3.51,2,5.08,1.77,13.42-2.11,26.79-.86,40.22-.3,11.44.47,23-.67,34.42-.74,24-.14,48,.23,72-.25,7.08-.14,11.57,2.48,15.63,8.86-4.46,1.82-8.77,3.6-13.1,5.34-.77.3-1.87.15-2.37.65-7.71,7.7-17.85,5.26-27,6-16.9,1.34-33.89,1.58-50.85,2.16q-31.37,1.07-62.74,1.92c-17.1.47-34.21.48-51.29,1.33a215.46,215.46,0,0,0-27.18,3.62c-2.36.43-4.26,3.1-6.52,4.48s-4.43,3-6.79,3.27c-5.28.56-10.65.26-16,.42-18.13.57-36.26,1.22-54.39,1.75-16.61.49-33.21.84-49.82,1.33-3,.09-6.23-.08-8.81,1.08a8.67,8.67,0,0,0-4.16,5.69c-.2,1.13,2.55,3.33,4.38,4.18,5,2.35,10.24,3.5,15.87,2.28a9.06,9.06,0,0,1,4.86.85,16,16,0,0,1,3.35,2.45c-1.31.71-2.64,2.07-3.93,2-17.41-.59-34.82-1.54-52.24-2.06-10-.3-19.94-.18-29.91.08-8.64.22-17.26,1.2-25.89,1.3-18.15.22-36.29-.1-54.43.19-5.48.09-10.91.36-15.9,4.4-2.52,2-7.62,1-11.56,1.15-18.27.51-36.65-.11-54.78,1.71-12.57,1.26-24.91,2.65-37.61,1.88-8.18-.5-16.5,1.37-24.77,2-5.3.41-10.63.6-15.95.7-27.28.54-54.5,1.49-81.69,4.56-17,1.92-34.25,1-51.38,1.57-3.24.11-6.43,1.3-9.65,1.9-3.58.66-7.17,1.67-10.77,1.75-12.82.3-25.65.24-38.48.36-30.14.28-60.28.94-90.41.77-27-.16-53.92-1.21-80.87-1.9A3.7,3.7,0,0,1,487,133.1l7.54-2.23c.21-.51.41-1,.62-1.54-2.58-1.19-5.15-3.34-7.75-3.4-15.94-.36-31.88-.27-47.82-.21a12.33,12.33,0,0,0-5.27,1.35c-5.63,2.85-11.51,3-17.55,2.1-4.63-.67-9.21-1.39-13.48,1.64-1.09.77-2.87.74-4.34.74-10.83,0-21.8,1-32.44-.43-11.94-1.61-23.72.57-35.52-.59-2.65-.26-5.18-1.69-7.81-2.41-2-.55-4.29-1.6-6.09-1.11-10.29,2.77-20.45.15-30.66-.22-4.78-.18-9.56-.55-14.34-.56-7.49,0-15,.37-22.47.27-9-.12-18-.32-26.92-1a12,12,0,0,1-7-3.77c-3.08-3.31-5.37-7.33-8.21-10.87a4.53,4.53,0,0,0-3.37-1.4c-7.87.59-16.08.18-23.51,2.37-16.2,4.77-32.61,3.95-49.05,3.82-3.39,0-6.76-1.4-10.15-2.13-4.82-1-9.61-2.43-14.5-3-3.88-.42-6.62,1.53-7.13,5.94a5.6,5.6,0,0,1-2.26,3.27c-4.36,3.17-9.26,5.7-13.17,9.32-3,2.81-5.5,2.89-8.92,1.42a18.9,18.9,0,0,0-7.11-1.73c-15.26-.09-27.41-5.86-37-18-5.64-7.11-12.58-13.24-19.23-19.49-2.9-2.72-5-5.29-5.61-9.49-.89-5.86-2.06-11.94-4.55-17.24C-1.74,56.78.51,49.82,3.22,42.94c3.16-8,7.78-15.45,15.13-20.15A163.72,163.72,0,0,1,43.12,9.46C51.63,5.89,60.73,3.7,69.66,1.19c6-1.7,11.93-2,17.73,1.89C89.5,4.48,93.11,4,96,3.8c4.59-.36,9.13-1.82,13.69-1.8,20.47.09,41,.09,61.4,1,17.51.78,35.05,1,52.38,5.12,9.21,2.19,19.19,1.22,28.82,1.53,1.43,0,2.87-.76,4.33-1.09,4.25-1,8.54-2.71,12.78-2.64,24.1.39,48.19,1.38,72.29,1.87C380.4,8.58,419.14,9,457.87,9.9c10.26.24,20.49,1.93,30.75,2.56,4.41.27,8.89-.8,13.32-.65,8.22.28,16.42,1.13,24.64,1.45A12.14,12.14,0,0,0,533,11.74c3.21-1.92,6-1.93,9.4-.46,2.65,1.13,5.79,1.13,8.72,1.63Z" />
        </g>
    </g>
</svg>